<?xml version="1.0" encoding="utf-8"?>
<!-- Generator: Adobe Illustrator 22.0.1, SVG Export Plug-In . SVG Version: 6.00 Build 0)  -->
<svg version="1.1" id="Layer_1" xmlns="http://www.w3.org/2000/svg" xmlns:xlink="http://www.w3.org/1999/xlink" x="0px" y="0px"
	 viewBox="0 0 500 500" style="enable-background:new 0 0 500 500;" xml:space="preserve">
<path d="M384.5,206.2c-17.6,0-34.1,5.1-48,13.8l-34.7-45.2l8.3-33.8h14c4.7,0,8.5-3.8,8.5-8.5s-3.8-8.5-8.5-8.5h-59.9
	c-4.7,0-8.5,3.8-8.5,8.5s3.8,8.5,8.5,8.5h28.4l-6.7,27.3H156.3l9.5-38.2h33.6c4.7,0,8.5-3.8,8.5-8.5s-3.8-8.5-8.5-8.5h-40.2
	c-3.9,0-7.3,2.7-8.2,6.4l-13.8,55.2c0,0,0,0,0,0l-8.1,32.6c-4.4-0.7-8.9-1-13.6-1c-49.9,0-90.4,40.5-90.4,90.4
	c0,49.9,40.5,90.4,90.4,90.4s90.4-40.5,90.4-90.4c0-39.4-25.2-72.9-60.4-85.3l4.5-17.8l107.2,109.1c0.1,0.1,0.2,0.2,0.3,0.3
	c0,0,0,0,0,0c1.4,1.3,3.3,2.1,5.3,2.2c0.1,0,0.3,0,0.4,0c0,0,0,0,0.1,0l31.2,0c4.3,45.9,42.9,81.9,90,81.9
	c49.9,0,90.4-40.5,90.4-90.4C474.9,246.7,434.4,206.2,384.5,206.2z M188.9,296.6c0,40.5-32.9,73.4-73.4,73.4
	c-40.5,0-73.4-32.9-73.4-73.4c0-40.5,32.9-73.4,73.4-73.4c3.2,0,6.3,0.2,9.4,0.6l-17.7,70.7c-1.1,4.6,1.6,9.2,6.2,10.3
	c0.7,0.2,1.4,0.3,2.1,0.3c3.8,0,7.3-2.6,8.2-6.4l17.7-70.7C169.1,238.4,188.9,265.2,188.9,296.6z M258.6,279.8l-92.9-94.6h116.1
	L258.6,279.8z M296.6,195.9l26.4,34.4c-15.8,14.7-26.4,35-28.5,57.8l-20.5,0L296.6,195.9z M333.4,243.9l33.8,44.1l-55.7,0
	C313.6,270.9,321.6,255.4,333.4,243.9z M384.5,370c-37.6,0-68.7-28.4-72.9-64.9l72.9,0c3.2,0,6.2-1.8,7.6-4.7s1.1-6.4-0.9-8.9
	l-44.3-57.8c11-6.6,23.9-10.4,37.6-10.4c40.5,0,73.4,32.9,73.4,73.4C457.9,337.1,425,370,384.5,370z"/>
</svg>
