<?xml version="1.0" encoding="utf-8"?>
<!-- Generator: Adobe Illustrator 22.0.1, SVG Export Plug-In . SVG Version: 6.00 Build 0)  -->
<svg version="1.1" id="Layer_1" xmlns="http://www.w3.org/2000/svg" xmlns:xlink="http://www.w3.org/1999/xlink" x="0px" y="0px"
	 viewBox="0 0 500 500" style="enable-background:new 0 0 500 500;" xml:space="preserve">
<g>
	<path d="M397.1,107.2L342.9,53c-1.9-1.9-4.4-2.9-7.1-2.9H110c-5.5,0-10,4.5-10,10v380c0,5.5,4.5,10,10,10h280c5.5,0,10-4.5,10-10
		V114.2C400,111.6,398.9,109,397.1,107.2z M311.9,212.6l-9.4,27.9h-69.2c-0.4,1.6-0.5,3.2-0.5,4.7c0,1.5,0,3.3,0,5.2
		c0,1.3,0,2.7,0,4.4c0,1.7,0.1,3.3,0.3,4.7h64.6l-9.1,27.6h-49.9c1.2,3.8,3.2,7.3,5.9,10.6c2.7,3.3,6,6.2,9.9,8.6
		c3.9,2.4,8.3,4.3,13.1,5.6c4.8,1.3,9.9,2,15.3,2c13.2,0,24.6-2.8,34-8.3l9.9,34c-5.2,3-11.8,5.5-20,7.5c-8.1,2-17.2,2.9-27.2,2.9
		c-11.8,0-22.4-1.6-31.8-4.8c-9.4-3.2-17.6-7.6-24.5-13.3c-7-5.6-12.8-12.3-17.6-20c-4.7-7.7-8.3-16-10.6-24.9h-24.7l9.1-27.6h12.1
		c-0.2-1.6-0.3-3.2-0.3-4.8c0-1.6,0-3.1,0-4.6c0-3.2,0.3-6.4,0.8-9.7h-20.9l9.7-27.9h15.3c2.9-9.8,7.1-18.6,12.6-26.3
		c5.5-7.7,12.2-14.2,20-19.6c7.8-5.4,16.4-9.5,26-12.3c9.6-2.9,19.8-4.3,30.7-4.3c7.9,0,15.8,0.7,23.9,2.1c8,1.4,14.7,3.4,19.8,5.9
		l-13.1,33.8c-3.9-2-8.8-3.5-14.6-4.6c-5.8-1.1-11.6-1.6-17.3-1.6c-4.7,0-9.2,0.6-13.7,1.7c-4.5,1.2-8.6,2.9-12.5,5.1
		c-3.8,2.2-7.3,5.1-10.3,8.4c-3,3.4-5.4,7.2-7,11.5H311.9z"/>
</g>
</svg>
