<?xml version="1.0" encoding="utf-8"?>
<!-- Generator: Adobe Illustrator 22.0.1, SVG Export Plug-In . SVG Version: 6.00 Build 0)  -->
<svg version="1.1" id="Layer_1" xmlns="http://www.w3.org/2000/svg" xmlns:xlink="http://www.w3.org/1999/xlink" x="0px" y="0px"
	 viewBox="0 0 500 500" style="enable-background:new 0 0 500 500;" xml:space="preserve">
<g>
	<path d="M246.1,82.5h-64.4c-5.5,0-10,4.5-10,10v305.6c0,5.5,4.5,10,10,10h64.4c5.5,0,10-4.5,10-10V92.5
		C256.1,86.9,251.7,82.5,246.1,82.5z M202.4,120.1c0-2.2,1.8-4,4-4h15.2c2.2,0,4,1.8,4,4V324c0,2.2-1.8,4-4,4h-15.2
		c-2.2,0-4-1.8-4-4V120.1z M243.2,365.1c0,1.7-1.3,3-3,3h-52.4c-1.7,0-3-1.3-3-3V363c0-1.7,1.3-3,3-3h52.4c1.7,0,3,1.3,3,3V365.1z"
		/>
	<path d="M146.1,82.5H81.8c-5.5,0-10,4.5-10,10v305.6c0,5.5,4.5,10,10,10h64.4c5.5,0,10-4.5,10-10V92.5
		C156.1,86.9,151.7,82.5,146.1,82.5z M102.4,120.1c0-2.2,1.8-4,4-4h15.2c2.2,0,4,1.8,4,4V324c0,2.2-1.8,4-4,4h-15.2
		c-2.2,0-4-1.8-4-4V120.1z M143.2,365.1c0,1.7-1.3,3-3,3H87.8c-1.7,0-3-1.3-3-3V363c0-1.7,1.3-3,3-3h52.4c1.7,0,3,1.3,3,3V365.1z"/>
	<path d="M470.7,367.5L343.6,89.6c-2.3-5-8.2-7.2-13.3-4.9l-58.5,26.8c-5,2.3-7.2,8.2-4.9,13.3L394,402.6c2.3,5,8.2,7.2,13.3,4.9
		l58.5-26.8C470.8,378.5,473,372.5,470.7,367.5z M308.1,131.8l13.8-6.3c2-0.9,4.4,0,5.3,2l84.8,185.5c0.9,2,0,4.4-2,5.3l-13.8,6.3
		c-2,0.9-4.4,0-5.3-2l-84.8-185.5C305.3,135.1,306.1,132.7,308.1,131.8z M443.7,346.9l-47.6,21.8c-1.5,0.7-3.3,0-4-1.5l-0.9-1.9
		c-0.7-1.5,0-3.3,1.5-4l47.6-21.8c1.5-0.7,3.3,0,4,1.5l0.9,1.9C445.9,344.4,445.2,346.2,443.7,346.9z"/>
</g>
</svg>
